<?xml version="1.0" encoding="utf-8"?>
<!DOCTYPE svg PUBLIC "-//W3C//DTD SVG 1.1//EN" "http://www.w3.org/Graphics/SVG/1.1/DTD/svg11.dtd">
<svg version="1.1" xmlns="http://www.w3.org/2000/svg" xmlns:xlink="http://www.w3.org/1999/xlink" x="0px" y="0px" width="262px" height="266px" viewBox="0 0 2620 2660" preserveAspectRatio="xMidYMid meet">
<g id="layer101">
 <path fill="#050505" d="M0 1330 l0 -1330 1310 0 1310 0 0 1330 0 1330 -1310 0 -1310 0 0 -1330z"/>
 </g>
<g id="layer102">
 <path fill="#fdfdfd" d="M0 1330 l0 -1330 1310 0 1310 0 0 1330 0 1330 -1310 0 -1310 0 0 -1330z m1144 1188 c3 -7 7 -82 10 -165 7 -182 -1 -193 -58 -79 -25 51 -53 90 -89 122 -72 65 -125 87 -224 92 l-83 5 0 -242 0 -241 33 0 c92 0 151 48 185 149 35 106 42 80 42 -163 0 -131 -4 -226 -9 -226 -5 0 -17 23 -26 51 -31 93 -100 149 -185 149 l-40 0 0 -231 0 -231 88 4 c137 7 202 53 271 193 47 94 59 87 54 -32 -2 -54 -6 -122 -9 -150 l-5 -53 -390 0 c-382 0 -389 0 -389 20 0 17 7 20 45 20 l45 0 0 490 0 490 -45 0 c-38 0 -45 3 -45 20 0 20 7 20 410 20 320 0 411 -3 414 -12z m1020 -10 c3 -13 7 -63 11 -113 3 -49 8 -120 12 -157 8 -96 -13 -92 -68 12 -52 97 -126 183 -183 212 -26 13 -67 23 -113 26 l-73 5 0 -492 0 -491 80 0 c74 0 80 -2 80 -20 0 -20 -5 -20 -272 -18 -251 3 -273 4 -276 21 -3 14 4 17 42 17 l46 0 0 490 0 490 -45 0 c-43 0 -58 14 -38 33 3 4 183 7 399 7 l394 0 4 -22z m-1118 -1698 c95 -272 178 -505 183 -517 8 -18 19 -23 46 -23 22 0 34 -4 30 -10 -8 -13 -225 -13 -225 -1 0 6 24 11 53 13 28 2 52 8 52 13 0 24 -251 723 -257 717 -12 -12 -247 -720 -240 -726 3 -3 27 -6 54 -6 26 0 48 -4 48 -10 0 -6 -88 -10 -245 -10 -146 0 -245 4 -245 9 0 6 15 11 32 13 l33 3 185 500 c102 275 188 508 192 518 7 15 18 17 69 15 l62 -3 173 -495z m382 468 c-3 -8 -26 -14 -56 -16 -29 -2 -52 -5 -52 -6 0 -4 95 -272 105 -298 6 -16 24 -18 155 -18 l148 0 51 153 c28 83 51 155 51 159 0 4 -21 8 -47 10 -26 2 -48 9 -51 16 -3 9 50 12 242 12 212 0 246 -2 246 -15 0 -10 -10 -15 -34 -15 -30 0 -36 -4 -48 -37 -8 -21 -93 -251 -189 -510 l-174 -473 -62 0 -61 0 -26 68 c-15 37 -100 265 -190 507 l-164 440 -36 3 c-23 2 -36 8 -36 18 0 11 22 14 116 14 88 0 115 -3 112 -12z"/>
 <path fill="#fdfdfd" d="M1450 901 c0 -23 138 -391 140 -371 0 3 27 85 60 183 33 97 60 181 60 187 0 6 -49 10 -130 10 -71 0 -130 -4 -130 -9z"/>
 </g>

</svg>